<svg xmlns="http://www.w3.org/2000/svg" width="33.609" height="33.609" viewBox="0 0 33.609 33.609">
  <g id="vuesax_bulk_box-add" data-name="vuesax/bulk/box-add" transform="translate(-300 -188)">
    <g id="box-add" transform="translate(300 188)">
      <path id="Vector" d="M0,0H33.609V33.609H0Z" fill="none" opacity="0"/>
      <path id="Vector-2" data-name="Vector" d="M11.2,2.381c0-.014-.014-.028-.028-.042a1.612,1.612,0,0,0-.2-.238c-.014-.014-.028-.042-.042-.056A6.226,6.226,0,0,0,6.3,0,6.291,6.291,0,0,0,.91,9.551a5.774,5.774,0,0,0,1.148,1.386.193.193,0,0,1,.056.042c.07.07.14.126.224.2h.014c.014.014.028.028.042.028A6.03,6.03,0,0,0,6.3,12.6a6.283,6.283,0,0,0,5.392-3.053,6.606,6.606,0,0,0,.728-1.779A5.717,5.717,0,0,0,12.6,6.3,6.125,6.125,0,0,0,11.2,2.381ZM8.654,7.324h-1.3V8.682a1.05,1.05,0,1,1-2.1,0V7.324h-1.3a1.05,1.05,0,0,1,0-2.1h1.3V3.977a1.05,1.05,0,1,1,2.1,0V5.223h1.3a1.05,1.05,0,0,1,0,2.1Z" transform="translate(19.605 19.605)" fill="#fff"/>
      <path id="Vector-3" data-name="Vector" d="M21.636,5.125,12.828.378a3.13,3.13,0,0,0-2.983,0L1.036,5.125a2.068,2.068,0,0,0,0,3.585l8.808,4.747a3.1,3.1,0,0,0,2.969,0L21.622,8.71a2.02,2.02,0,0,0,1.036-1.792A1.955,1.955,0,0,0,21.636,5.125Z" transform="translate(5.462 2.801)" fill="#fff" opacity="0.4"/>
      <path id="Vector-4" data-name="Vector" d="M11.105,4.321,2.913.217A2,2,0,0,0,.952.3,1.979,1.979,0,0,0,0,2.01V9.754a3.5,3.5,0,0,0,1.947,3.151l8.192,4.089a2.006,2.006,0,0,0,.9.21,1.911,1.911,0,0,0,1.05-.308,1.979,1.979,0,0,0,.952-1.709V7.444A3.449,3.449,0,0,0,11.105,4.321Z" transform="translate(2.759 13.59)" fill="#fff" opacity="0.4"/>
      <path id="Vector-5" data-name="Vector" d="M13.052,2.015V8.443c-.014-.014-.028-.042-.042-.056s-.014-.028-.028-.042a1.612,1.612,0,0,0-.2-.238c-.014-.014-.028-.042-.042-.056A6.226,6.226,0,0,0,8.108,6.006a6.291,6.291,0,0,0-5.392,9.551,5.978,5.978,0,0,0,.854,1.106L2.913,17A2.021,2.021,0,0,1,0,15.192V7.462A3.5,3.5,0,0,1,1.947,4.311L10.139.222A1.963,1.963,0,0,1,12.1.306,2.01,2.01,0,0,1,13.052,2.015Z" transform="translate(17.799 13.6)" fill="#fff" opacity="0.4"/>
    </g>
  </g>
</svg>
