<svg xmlns="http://www.w3.org/2000/svg" width="24" height="24" viewBox="0 0 24 24">
  <g id="vuesax_bulk_direct-up" data-name="vuesax/bulk/direct-up" transform="translate(-236 -252)">
    <g id="direct-up">
      <path id="Vector" d="M15.023,12.483l-3.48-1.74a3.453,3.453,0,0,0-3.07,0l-3.48,1.74a3.435,3.435,0,0,1-4.58-4.67l.82-1.54a1.081,1.081,0,0,1,.51-.48l12.64-5.7a1.076,1.076,0,0,1,1.39.48l3.81,7.24A3.427,3.427,0,0,1,15.023,12.483Z" transform="translate(237.997 260.807)" fill="#fff"/>
      <path id="Vector-2" data-name="Vector" d="M9.8,5.358,1.52,9.087A1.074,1.074,0,0,1,.13,7.607l3.04-5.77a3.433,3.433,0,0,1,6.08,0l1.07,2.04A1.087,1.087,0,0,1,9.8,5.358Z" transform="translate(241.8 254.333)" fill="#fff" opacity="0.4"/>
      <path id="Vector-3" data-name="Vector" d="M0,0H24V24H0Z" transform="translate(236 252)" fill="none" opacity="0"/>
    </g>
  </g>
</svg>
